<svg xmlns="http://www.w3.org/2000/svg" width="32.504" height="26" viewBox="0 0 32.504 26">
  <g id="bathtub" transform="translate(0 -34.8)">
    <g id="Group_107" data-name="Group 107" transform="translate(0 34.8)">
      <g id="Group_106" data-name="Group 106" transform="translate(0 0)">
        <path id="Path_58" data-name="Path 58" d="M31.942,45.5a1.648,1.648,0,0,0-1.29-.546h-.529V35.282a.48.48,0,0,0-.5-.482H26.651a.637.637,0,0,0-.265.064l-1.19.611-.331-.321a.945.945,0,0,0-.761-.289,1.605,1.605,0,0,0-.761.225L21.063,36.6a.455.455,0,0,0-.132.1.913.913,0,0,0-.3.675,1.136,1.136,0,0,0,.2.643c.033.064.1.1.132.161l1.918,1.9a.578.578,0,0,0,.165.129,1.217,1.217,0,0,0,.661.193,1.021,1.021,0,0,0,.694-.257c.033-.032.066-.1.1-.129l1.554-2.185.033-.032a1.265,1.265,0,0,0,.265-.739,1.115,1.115,0,0,0-.3-.739l-.1-.1.827-.418H29.1v9.192H1.885a1.771,1.771,0,0,0-1.323.546A1.8,1.8,0,0,0,0,46.82a1.675,1.675,0,0,0,.562,1.286,1.9,1.9,0,0,0,1.323.546h.43L3.009,55.3A3.833,3.833,0,0,0,4.1,57.618a3.245,3.245,0,0,0,2.282.932.562.562,0,0,1,.463.193.626.626,0,0,1,.2.45.533.533,0,0,1-.2.45.662.662,0,0,1-.463.193.48.48,0,0,0-.5.482.5.5,0,0,0,.5.482,1.726,1.726,0,0,0,1.19-.482,1.631,1.631,0,0,0,.5-1.157,2.027,2.027,0,0,0-.132-.643H24.568a1.4,1.4,0,0,0-.132.643,1.529,1.529,0,0,0,.463,1.125l.033.032a1.726,1.726,0,0,0,1.19.482.48.48,0,0,0,.5-.482.5.5,0,0,0-.5-.482.562.562,0,0,1-.463-.193l-.033-.032a.685.685,0,0,1-.165-.45.533.533,0,0,1,.2-.45.662.662,0,0,1,.463-.193,3.187,3.187,0,0,0,2.282-.932A3.833,3.833,0,0,0,29.5,55.272l.694-6.653h.43a1.771,1.771,0,0,0,1.323-.546,1.8,1.8,0,0,0,.562-1.286A1.675,1.675,0,0,0,31.942,45.5Zm-6.58-8.388a.4.4,0,0,0-.066.1.032.032,0,0,1-.033.032L23.742,39.4c-.033,0-.066,0-.066-.032L21.758,37.5a.111.111,0,0,0-.033-.064l2.249-1.478a.568.568,0,0,1,.165-.064h.033l1.19,1.189ZM28.5,55.144a2.765,2.765,0,0,1-.794,1.7,2.262,2.262,0,0,1-1.554.643H6.382a2.2,2.2,0,0,1-1.554-.643,2.6,2.6,0,0,1-.794-1.7L3.34,48.587H29.231Zm2.744-7.778a.839.839,0,0,1-.6.257H1.885a.784.784,0,0,1-.6-.257.945.945,0,0,1-.265-.578.744.744,0,0,1,.265-.578.839.839,0,0,1,.6-.257h28.8a.834.834,0,0,1,.827.836A.8.8,0,0,1,31.248,47.366Z" transform="translate(0 -34.8)" fill="#363636"/>
      </g>
    </g>
    <g id="Group_109" data-name="Group 109" transform="translate(18.978 39.64)">
      <g id="Group_108" data-name="Group 108" transform="translate(0 0)">
        <path id="Path_59" data-name="Path 59" d="M233.689,95.965a.575.575,0,0,0-.806,0l-1.318,1.282a.57.57,0,0,0,.806.806l1.318-1.282A.575.575,0,0,0,233.689,95.965Z" transform="translate(-231.4 -95.8)" fill="#363636"/>
      </g>
    </g>
    <g id="Group_111" data-name="Group 111" transform="translate(20.698 40.682)">
      <g id="Group_110" data-name="Group 110" transform="translate(0 0)">
        <path id="Path_60" data-name="Path 60" d="M253.185,109.03a.525.525,0,0,0-.732.293l-.623,1.392a.545.545,0,0,0,.293.732.525.525,0,0,0,.732-.293l.623-1.392A.525.525,0,0,0,253.185,109.03Z" transform="translate(-251.772 -108.972)" fill="#363636"/>
      </g>
    </g>
    <g id="Group_113" data-name="Group 113" transform="translate(17.839 38.706)">
      <g id="Group_112" data-name="Group 112" transform="translate(0 0)">
        <path id="Path_61" data-name="Path 61" d="M220,83.078a.564.564,0,0,0-.732-.293l-1.392.623a.558.558,0,1,0,.439,1.025l1.392-.623A.564.564,0,0,0,220,83.078Z" transform="translate(-217.544 -82.744)" fill="#363636"/>
      </g>
    </g>
  </g>
</svg>
