<svg xmlns="http://www.w3.org/2000/svg" width="15.95" height="18.2" viewBox="0 0 15.95 18.2">
  <g id="box" transform="translate(-0.9 0.101)">
    <path id="Path_69" data-name="Path 69" d="M16.684,6.423a.544.544,0,0,0-.016-.528L13.941.275a.575.575,0,0,0-.47-.256.514.514,0,0,0-.1-.019h-9a.473.473,0,0,0-.1.02.576.576,0,0,0-.47.255L1.081,5.9a.547.547,0,0,0-.016.528A1.121,1.121,0,0,0,1,6.749V16.873A1.126,1.126,0,0,0,2.125,18h13.5a1.125,1.125,0,0,0,1.125-1.126V6.749A1.053,1.053,0,0,0,16.684,6.423Zm-3.658-5.3,2.181,4.5H10.938l-.752-4.5h2.838Zm-4.15,0L10,5.624H7.75ZM7.75,6.749H10v4.5H7.75ZM4.725,1.124H7.563l-.75,4.5H2.542Zm10.9,15.188a.563.563,0,0,1-.562.561H2.688a.562.562,0,0,1-.562-.561v-9a.563.563,0,0,1,.563-.562H6.625v5.625h4.5V6.749h3.938a.563.563,0,0,1,.563.563Z" fill="#363636" stroke="#363636" stroke-width="0.2"/>
  </g>
</svg>
