<svg xmlns="http://www.w3.org/2000/svg" width="17.229" height="14" viewBox="0 0 17.229 14">
  <g id="card" transform="translate(0 -1.998)">
    <path id="Path_71" data-name="Path 71" d="M15.076,2H2.154A2.155,2.155,0,0,0,0,4.153v9.692A2.154,2.154,0,0,0,2.154,16H15.076a2.154,2.154,0,0,0,2.154-2.154V4.153A2.155,2.155,0,0,0,15.076,2Zm1.077,11.846a1.077,1.077,0,0,1-1.077,1.077H2.154a1.077,1.077,0,0,1-1.077-1.077V4.153A1.077,1.077,0,0,1,2.154,3.076H15.076a1.076,1.076,0,0,1,1.077,1.077ZM10.23,4.153a4.812,4.812,0,0,0-1.615.3,4.846,4.846,0,1,0,0,9.1,4.838,4.838,0,1,0,1.615-9.4ZM7,12.767A3.769,3.769,0,1,1,7,5.23c.067,0,.129.016.2.019a4.786,4.786,0,0,0,0,7.5C7.129,12.75,7.066,12.767,7,12.767Zm3.231,0A3.769,3.769,0,1,1,14,9,3.769,3.769,0,0,1,10.23,12.767Z" transform="translate(0 0)" fill="rgba(54,54,54,0.4)"/>
  </g>
</svg>
