<svg xmlns="http://www.w3.org/2000/svg" width="20.682" height="18.2" viewBox="0 0 20.682 18.2">
  <g id="cart" transform="translate(0.1 0.1)">
    <path id="Path_6" data-name="Path 6" d="M6.6,12.306H17.479a.6.6,0,0,0,.577-.446l2.4-8.614a.628.628,0,0,0-.1-.539.6.6,0,0,0-.479-.245H5.214L4.785.482A.6.6,0,0,0,4.2,0H.6A.608.608,0,0,0,0,.615a.608.608,0,0,0,.6.615H3.718l2.166,10A1.85,1.85,0,0,0,4.8,12.921a1.825,1.825,0,0,0,1.8,1.846h10.88a.615.615,0,0,0,0-1.231H6.6a.615.615,0,0,1,0-1.23ZM19.084,3.692l-2.057,7.383H7.081l-1.6-7.383Zm0,0" transform="translate(0 0)" fill="#363636" stroke="#363636" stroke-width="0.2"/>
    <path id="Path_7" data-name="Path 7" d="M150,361.617A1.617,1.617,0,1,0,151.617,360,1.619,1.619,0,0,0,150,361.617Zm1.617-.539a.539.539,0,1,1-.539.539A.54.54,0,0,1,151.617,361.078Zm0,0" transform="translate(-143.87 -345.234)" fill="#363636" stroke="#363636" stroke-width="0.2"/>
    <path id="Path_8" data-name="Path 8" d="M362,361.617A1.617,1.617,0,1,0,363.617,360,1.619,1.619,0,0,0,362,361.617Zm1.617-.539a.539.539,0,1,1-.539.539A.54.54,0,0,1,363.617,361.078Zm0,0" transform="translate(-346.91 -345.234)" fill="#363636" stroke="#363636" stroke-width="0.2"/>
  </g>
</svg>
