<svg xmlns="http://www.w3.org/2000/svg" width="19.4" height="18.296" viewBox="0 0 19.4 18.296">
  <g id="chat" transform="translate(0.1 -0.4)">
    <path id="Path_68" data-name="Path 68" d="M9.6,6.5a1.2,1.2,0,1,0,1.2,1.2A1.2,1.2,0,0,0,9.6,6.5Zm-4.8,0A1.2,1.2,0,1,0,6,7.7,1.2,1.2,0,0,0,4.8,6.5Zm8.4-6H6a6,6,0,0,0-6,6V8.9a6,6,0,0,0,3.6,5.494V18.5l4.95-3.6H13.2a6,6,0,0,0,6-6V6.5A6,6,0,0,0,13.2.5ZM18,8.9a4.8,4.8,0,0,1-4.8,4.8H8.161L4.8,16.1V13.53A4.789,4.789,0,0,1,1.2,8.9V6.5A4.8,4.8,0,0,1,6,1.7h7.2A4.8,4.8,0,0,1,18,6.5ZM14.4,6.5a1.2,1.2,0,1,0,1.2,1.2A1.2,1.2,0,0,0,14.4,6.5Z" fill="#363636" stroke="#363636" stroke-width="0.2"/>
  </g>
</svg>
