<svg xmlns="http://www.w3.org/2000/svg" width="34.896" height="27" viewBox="0 0 34.896 27">
  <g id="chest" transform="translate(0 -47.2)">
    <g id="Group_98" data-name="Group 98" transform="translate(6.888 63.941)">
      <g id="Group_97" data-name="Group 97">
        <path id="Path_55" data-name="Path 55" d="M87.564,247.635l-4.246-.035a.518.518,0,1,0,0,1.036l4.246.035a.508.508,0,0,0,.518-.518A.489.489,0,0,0,87.564,247.635Z" transform="translate(-82.8 -247.6)" fill="#363636"/>
      </g>
    </g>
    <g id="Group_100" data-name="Group 100" transform="translate(22.757 63.974)">
      <g id="Group_99" data-name="Group 99" transform="translate(0 0)">
        <path id="Path_56" data-name="Path 56" d="M278.329,248.035,274.083,248a.508.508,0,0,0-.518.518.489.489,0,0,0,.518.518l4.246.035a.518.518,0,0,0,0-1.036Z" transform="translate(-273.562 -248)" fill="#363636"/>
      </g>
    </g>
    <g id="Group_102" data-name="Group 102" transform="translate(0 47.2)">
      <g id="Group_101" data-name="Group 101" transform="translate(0 0)">
        <path id="Path_57" data-name="Path 57" d="M34.294,67.709a1.381,1.381,0,0,0-.368-.234V61.486a.681.681,0,0,0-.2-.5.661.661,0,0,0-.468-.2H20.309a1.8,1.8,0,0,0,.3-.4,3.838,3.838,0,0,0,.535-1.941,3.51,3.51,0,0,0-.368-1.572,3.878,3.878,0,0,0-.736-1.037l.736-2.643a.251.251,0,0,0,.033-.167.493.493,0,0,0-.5-.5H18.435a3.016,3.016,0,0,0,.3-.335,1.425,1.425,0,0,0,1.2-.7.033.033,0,0,1,.033-.033,1.351,1.351,0,0,0,.167-.937,1.124,1.124,0,0,0-.167-.468,1.935,1.935,0,0,0,.167-.468,1.563,1.563,0,0,0-.167-.937A1.513,1.513,0,0,0,19.238,48a1.342,1.342,0,0,0-.5-.1,1.754,1.754,0,0,0-.335-.368,1.4,1.4,0,0,0-.937-.335,1.621,1.621,0,0,0-.9.3,1.754,1.754,0,0,0-.335.368,1.425,1.425,0,0,0-1.2.7.033.033,0,0,1-.033.033,1.351,1.351,0,0,0-.167.937,1.124,1.124,0,0,0,.167.468,1.935,1.935,0,0,0-.167.468,1.563,1.563,0,0,0,.167.937,1.513,1.513,0,0,0,.736.636,1.343,1.343,0,0,0,.5.1.949.949,0,0,0,.3.335H14.654a.2.2,0,0,0-.134.033.534.534,0,0,0-.368.636l.736,2.677a3.673,3.673,0,0,0-.736,1.037,3.511,3.511,0,0,0-.368,1.572,3.838,3.838,0,0,0,.535,1.941l.3.4H1.673a.686.686,0,0,0-.7.7v5.989a2.791,2.791,0,0,0-.4.268A1.958,1.958,0,0,0,0,69.081a1.767,1.767,0,0,0,.569,1.338,1.958,1.958,0,0,0,1.338.569H3.312V73.7a.493.493,0,0,0,.5.5H5.253a.5.5,0,0,0,.5-.368l.87-2.877H28.272l.87,2.877a.5.5,0,0,0,.5.368h1.439a.493.493,0,0,0,.5-.5v-2.71h1.405a1.767,1.767,0,0,0,1.338-.569,1.958,1.958,0,0,0,.569-1.338A1.8,1.8,0,0,0,34.294,67.709Zm-1.405-5.855v5.32H17.967v-5.32H32.889ZM16.394,51.148a.464.464,0,0,1-.3,0,.343.343,0,0,1-.2-.167,1.034,1.034,0,0,1-.067-.268c0-.1.067-.167.134-.268a.561.561,0,0,0,.033-.736l-.033-.033a.839.839,0,0,1-.134-.234.36.36,0,0,1,.067-.268v-.033a.492.492,0,0,1,.2-.167.464.464,0,0,1,.3,0,.514.514,0,0,0,.636-.335v-.033a.539.539,0,0,1,.134-.234.407.407,0,0,1,.535,0,.6.6,0,0,1,.167.234.518.518,0,0,0,.636.368h.033a.464.464,0,0,1,.3,0,.343.343,0,0,1,.2.167,1.034,1.034,0,0,1,.067.268c0,.1-.067.167-.134.268a.561.561,0,0,0-.033.736l.033.033a.839.839,0,0,1,.134.234.361.361,0,0,1-.067.268v.033a.492.492,0,0,1-.2.167.464.464,0,0,1-.3,0,.514.514,0,0,0-.636.335v.033a.539.539,0,0,1-.134.234.407.407,0,0,1-.535,0,.6.6,0,0,1-.167-.234A.572.572,0,0,0,16.394,51.148Zm-1.338,6.19a2.153,2.153,0,0,1,.736-.9.527.527,0,0,0,.167-.569l-.636-2.309H19.64L19,55.9a.535.535,0,0,0,.167.535,2.739,2.739,0,0,1,.736.9,2.588,2.588,0,0,1,.268,1.138,2.634,2.634,0,0,1-.4,1.405,2.893,2.893,0,0,1-.97.937H17.666a.251.251,0,0,0-.167.033c-.067,0-.1-.033-.167-.033H16.193a2.718,2.718,0,0,1-1-.937,2.764,2.764,0,0,1-.4-1.405A2.588,2.588,0,0,1,15.056,57.338ZM2.007,61.854H16.93v5.32H2.007ZM4.918,73.2H4.383V70.988h1.2Zm25.629,0h-.535l-.669-2.208h1.2Zm3.045-3.513a.838.838,0,0,1-.6.268H1.941a.783.783,0,0,1-.6-.268.811.811,0,0,1,0-1.2.838.838,0,0,1,.6-.268H32.989a.962.962,0,0,1,.6.234l.033.033a.892.892,0,0,1,.234.6A.783.783,0,0,1,33.591,69.683Z" transform="translate(0 -47.2)" fill="#363636"/>
      </g>
    </g>
    <g id="Group_104" data-name="Group 104" transform="translate(16.671 49.34)">
      <g id="Group_103" data-name="Group 103">
        <ellipse id="Ellipse_12" data-name="Ellipse 12" cx="0.794" cy="0.794" rx="0.794" ry="0.794" fill="#363636"/>
      </g>
    </g>
  </g>
</svg>
