<svg xmlns="http://www.w3.org/2000/svg" width="11.903" height="12.314" viewBox="0 0 11.903 12.314">
  <g id="controls" transform="translate(-0.6 0.4)">
    <path id="Path_22" data-name="Path 22" d="M2.439,2.878A1.44,1.44,0,0,0,3.862,1.645H11.9a.206.206,0,1,0,0-.411H3.862A1.438,1.438,0,1,0,2.439,2.878Zm0-2.467A1.028,1.028,0,1,1,1.411,1.439,1.029,1.029,0,0,1,2.439.411Z" fill="#363636" stroke="#363636" stroke-width="0.8"/>
    <path id="Path_23" data-name="Path 23" d="M10.663,42a1.44,1.44,0,0,0-1.423,1.234H1.206a.206.206,0,1,0,0,.411H9.241A1.438,1.438,0,1,0,10.663,42Zm0,2.467a1.028,1.028,0,1,1,1.028-1.028A1.029,1.029,0,0,1,10.663,44.467Z" transform="translate(0 -33.365)" fill="#363636" stroke="#363636" stroke-width="0.8"/>
    <path id="Path_24" data-name="Path 24" d="M11.9,21.9H8.066a1.481,1.481,0,0,0-2.945,0H1.206a.206.206,0,1,0,0,.411H5.134a1.48,1.48,0,0,0,2.919,0H11.9a.206.206,0,1,0,0-.411Zm-5.3,1.234a1.071,1.071,0,1,1,1.071-1.071A1.072,1.072,0,0,1,6.594,23.138Z" transform="translate(0 -16.353)" fill="#363636" stroke="#363636" stroke-width="0.8"/>
  </g>
</svg>
