<svg xmlns="http://www.w3.org/2000/svg" width="18.651" height="18.23" viewBox="0 0 18.651 18.23">
  <g id="home" transform="translate(-1.356 -2.87)">
    <path id="Home-2" data-name="Home" d="M91.648,84.762l-8.553-7.5a.629.629,0,0,0-.829,0l-8.553,7.5a.629.629,0,1,0,.829.946l.662-.58v9.353a.629.629,0,0,0,.629.629H89.528a.629.629,0,0,0,.629-.629V85.128l.662.58a.629.629,0,0,0,.829-.946Zm-10.42,9.09V88.672h2.9v5.181h-2.9ZM88.9,84.03v9.822H85.391V88.043a.629.629,0,0,0-.629-.629H80.6a.629.629,0,0,0-.629.629v5.81H76.463V84.03s0,0,0,0l6.218-5.45,6.219,5.45S88.9,84.029,88.9,84.03Z" transform="translate(-71.999 -74.11)" fill="#363636" stroke="#363636" stroke-width="0.2"/>
  </g>
</svg>
