<svg width="22" height="22" viewBox="0 0 22 22" fill="none" xmlns="http://www.w3.org/2000/svg">
<path d="M18.4349 22H3.55537C3.09831 22 2.72778 21.6332 2.72778 21.1808V8.18213C2.72778 7.72967 3.09831 7.36288 3.55537 7.36288C4.01244 7.36288 4.38296 7.72967 4.38296 8.18213V20.3615H17.6073V8.18213C17.6073 7.72967 17.9778 7.36288 18.4349 7.36288C18.892 7.36288 19.2625 7.72967 19.2625 8.18213V21.1808C19.2625 21.6332 18.892 22 18.4349 22Z" fill="white"/>
<path d="M21.1726 11.7131C20.953 11.7132 20.7425 11.6269 20.5872 11.4733L10.9949 1.97775L1.40253 11.4733C1.0778 11.7838 0.561625 11.7793 0.242396 11.4633C-0.0768338 11.1473 -0.0813192 10.6363 0.232315 10.3149L10.4078 0.239863C10.731 -0.0799542 11.2549 -0.0799542 11.578 0.239863L21.7579 10.3149C21.9944 10.5492 22.065 10.9015 21.9369 11.2075C21.8088 11.5135 21.5072 11.713 21.1726 11.7131Z" fill="white"/>
<path fill-rule="evenodd" clip-rule="evenodd" d="M8.59541 22H13.3954C13.8525 22 14.223 21.6332 14.223 21.1808V14.1069C14.223 13.6544 13.8525 13.2877 13.3954 13.2877H8.59541C8.13835 13.2877 7.76782 13.6544 7.76782 14.1069V21.1808C7.76782 21.6332 8.13835 22 8.59541 22ZM12.5678 20.3615H9.423V14.9261H12.5678V20.3615Z" fill="white"/>
</svg>
