<svg xmlns="http://www.w3.org/2000/svg" width="14.746" height="11.1" viewBox="0 0 14.746 11.1">
  <g id="list" transform="translate(0 -7.434)">
    <path id="Path_49" data-name="Path 49" d="M24.517,47.365H14.656a.736.736,0,0,1,0-1.472h9.861a.736.736,0,0,1,0,1.472Z" transform="translate(-10.506 -29.026)"/>
    <path id="Path_50" data-name="Path 50" d="M24.517,28.534H14.656a.736.736,0,0,1,0-1.472h9.861a.736.736,0,0,1,0,1.472Z" transform="translate(-10.506 -14.814)"/>
    <path id="Path_51" data-name="Path 51" d="M24.517,9.7H14.656a.736.736,0,0,1,0-1.472h9.861a.736.736,0,0,1,0,1.472Z" transform="translate(-10.506 -0.602)"/>
    <ellipse id="Ellipse_8" data-name="Ellipse 8" cx="0.988" cy="0.988" rx="0.988" ry="0.988" transform="translate(0 7.434)"/>
    <ellipse id="Ellipse_9" data-name="Ellipse 9" cx="0.988" cy="0.988" rx="0.988" ry="0.988" transform="translate(0 11.996)"/>
    <ellipse id="Ellipse_10" data-name="Ellipse 10" cx="0.988" cy="0.988" rx="0.988" ry="0.988" transform="translate(0 16.558)"/>
  </g>
</svg>
