<svg xmlns="http://www.w3.org/2000/svg" width="17.506" height="18.2" viewBox="0 0 17.506 18.2">
  <g id="profile" transform="translate(-2.682 -1.9)">
    <g id="_21-user_-_single" data-name="21-user - single" transform="translate(1.998 2.001)">
      <path id="Path_54" data-name="Path 54" d="M16.967,13.465c-.475-.452-4.786-1.43-5.614-1.617C13.3,10.779,14.5,8.184,14.5,5.741,14.5,2.57,13.582,0,9.436,0S4.37,2.57,4.37,5.741c0,2.452,1.213,5.055,3.17,6.118-.95.209-5.137,1.146-5.624,1.606a3.546,3.546,0,0,0-.44,4.121S2.538,18,9.471,18s7.929-.413,7.929-.413A3.563,3.563,0,0,0,16.967,13.465Zm-.78,3.408-6.826-.017-6.674.017C1.454,16.4,2.08,14.46,2.9,14.062c.677-.328,3.823-1.213,5.048-1.552L8.175,11.4v-.473C6.511,10.125,5.5,7.839,5.5,5.761c0-2.563.656-4.642,3.935-4.642S13.37,3.2,13.37,5.761c0,2.078-1.008,4.364-2.674,5.166V11.4l.242,1.181c1.514.379,4.617,1.173,5.249,1.481C17.007,14.459,17.268,16.462,16.187,16.873Z" fill="#363636" stroke="#363636" stroke-width="0.2"/>
    </g>
  </g>
</svg>
