<svg xmlns="http://www.w3.org/2000/svg" width="16.018" height="16" viewBox="0 0 16.018 16">
  <g id="tag" transform="translate(0.017)">
    <path id="Path_70" data-name="Path 70" d="M3.069,9.427l3.5,3.491.7-.7-3.5-3.49ZM13.413,5.421a2.007,2.007,0,1,0-2.84,0A2,2,0,0,0,13.413,5.421ZM11.3,3.276a1,1,0,1,1,0,1.419A1,1,0,0,1,11.3,3.276ZM8.312,0,.273,8.03a.986.986,0,0,0,0,1.4L6.565,15.71a.988.988,0,0,0,1.4,0L16,7.681,16,0Zm6.641,7.332-7.34,7.333a.5.5,0,0,1-.7,0L1.321,9.078a.493.493,0,0,1,0-.7l7.34-7.333L15,1Z" fill="rgba(54,54,54,0.4)"/>
  </g>
</svg>
